<?xml version="1.0" encoding="UTF-8" standalone="no"?>
<!-- Created with Inkscape (http://www.inkscape.org/) -->

<svg
   xmlns:dc="http://purl.org/dc/elements/1.1/"
   xmlns:cc="http://creativecommons.org/ns#"
   xmlns:rdf="http://www.w3.org/1999/02/22-rdf-syntax-ns#"
   xmlns:svg="http://www.w3.org/2000/svg"
   xmlns="http://www.w3.org/2000/svg"
   xmlns:sodipodi="http://sodipodi.sourceforge.net/DTD/sodipodi-0.dtd"
   xmlns:inkscape="http://www.inkscape.org/namespaces/inkscape"
   version="1.1"
   id="svg3725"
   width="284"
   height="260"
   viewBox="0 0 284 260"
   sodipodi:docname="instapizza.svg"
   inkscape:version="0.92.3 (2405546, 2018-03-11)">
  <metadata
     id="metadata3731">
    <rdf:RDF>
      <cc:Work
         rdf:about="">
        <dc:format>image/svg+xml</dc:format>
        <dc:type
           rdf:resource="http://purl.org/dc/dcmitype/StillImage" />
        <dc:title></dc:title>
      </cc:Work>
    </rdf:RDF>
  </metadata>
  <defs
     id="defs3729" />
  <sodipodi:namedview
     pagecolor="#ffffff"
     bordercolor="#666666"
     borderopacity="1"
     objecttolerance="10"
     gridtolerance="10"
     guidetolerance="10"
     inkscape:pageopacity="0"
     inkscape:pageshadow="2"
     inkscape:window-width="1301"
     inkscape:window-height="882"
     id="namedview3727"
     showgrid="false"
     inkscape:zoom="1.8153846"
     inkscape:cx="50.170612"
     inkscape:cy="174.45194"
     inkscape:window-x="0"
     inkscape:window-y="0"
     inkscape:window-maximized="0"
     inkscape:current-layer="svg3725" />
  <path
     style="fill:#0d7914;stroke-width:1.33333337;fill-opacity:1"
     d="M 101.33333,244.59456 C 43.071312,232.08987 2.8581877,175.39708 10.573456,116.64056 15.830481,76.605069 41.095473,42.3387 78,25.19138 119.84522,5.7484165 172.55233,14.862896 206.04225,47.333333 c 20.8883,20.25242 35.29108,51.518239 35.29108,76.610457 v 6.72288 H 184 c -31.53333,0 -57.33333,0.44637 -57.33333,0.99193 0,0.54556 18.1248,19.12405 40.27733,41.28552 l 40.27735,40.29359 -3.27735,3.50629 c -5.51309,5.89824 -24.87693,18.05303 -35.01505,21.97913 -5.27759,2.0438 -14.22032,4.6672 -19.87274,5.82978 -12.54437,2.58008 -35.80121,2.60037 -47.72288,0.0416 z M 158,232.90448 c 9.47837,-3.11405 25.99847,-11.82759 33.28268,-17.55496 2.57067,-2.02125 2.55412,-2.11879 -0.95519,-5.62809 l -3.57118,-3.57119 -5.99368,4.30433 c -7.83636,5.62766 -20.76691,11.59095 -30.76263,14.1871 -49.17426,12.77177 -100.55278,-15.52154 -116.173739,-63.975 -4.535097,-14.06708 -5.677737,-35.59634 -2.653689,-50 4.340735,-20.675093 19.33996,-44.186325 36.160761,-56.681867 16.829699,-12.502152 32.303296,-17.926455 54.033657,-18.941615 18.76888,-0.876809 32.11846,1.971184 49.00856,10.455452 25.63881,12.878945 46.79372,41.8546 50.39874,69.03065 l 0.90259,6.80404 h 5.31295 5.31296 l -0.93592,-6.24113 C 227.57481,89.804932 212.3476,63.821188 191.6628,47.341096 175.91055,34.790888 158.73501,27.56806 138.77573,25.100497 85.618296,18.528649 36.496304,52.234307 21.845913,105.33333 c -1.756473,6.36618 -2.372896,13.26765 -2.322258,26 0.09685,24.35456 4.948964,40.33866 18.165104,59.84054 10.940636,16.14413 28.188094,30.35686 46.076018,37.96885 15.348038,6.53119 25.095523,8.1766 45.568553,7.69215 15.0902,-0.35707 19.72432,-0.99244 28.66667,-3.93039 z m -12,-16.95313 c 9.38709,-2.51111 19.79792,-6.96416 27.20695,-11.63731 l 7.20694,-4.54568 -30.73245,-30.88419 c -16.90286,-16.98629 -31.39598,-32.19473 -32.20695,-33.79652 -2.22812,-4.40088 -1.80268,-6.88067 1.79824,-10.48159 l 3.27272,-3.27273 H 167.27273 212 l -0.0158,-3 c -0.009,-1.65 -0.8889,-6.3 -1.95601,-10.33333 -5.92247,-22.385123 -23.85851,-44.220557 -44.71136,-54.431848 -14.54919,-7.124495 -24.45323,-9.573757 -38.59693,-9.545 -21.15188,0.04301 -38.297839,5.733272 -54.197857,17.986763 -21.725017,16.742577 -33.788296,41.263285 -33.835638,68.776805 -0.07293,42.38231 29.129734,77.43883 72.071875,86.51916 6.96685,1.47317 27.64167,0.67852 35.24175,-1.35453 z m -38.44444,-8.84024 c -1.87311,-1.87311 -0.92027,-14.75855 1.22287,-16.5372 3.2462,-2.69411 6.47944,0.13146 6.98102,6.10069 0.65731,7.82263 -0.65075,11.3254 -4.2293,11.3254 -1.69714,0 -3.48571,-0.4 -3.97459,-0.88889 z m 20.5912,-0.97179 c -4.16215,-2.30689 -6.7074,-7.04892 -6.76618,-12.60599 C 121.31623,187.44987 128.59305,180 134.59955,180 c 13.09761,0 19.87172,15.0672 10.83634,24.10256 -4.36036,4.36037 -11.56542,5.20917 -17.28913,2.03676 z M 139.33333,194 c 0,-3.55148 -0.44648,-4 -3.98173,-4 -2.78106,0 -4.12177,0.72709 -4.4461,2.41121 -0.83289,4.32483 0.85537,6.4598 4.75358,6.01142 3.09969,-0.35654 3.67425,-1.04812 3.67425,-4.42263 z m -75.066663,-6.26667 c -1.82544,-1.82544 -2.129639,-12.83333 -0.428796,-15.51665 0.621702,-0.98083 2.562516,-1.58083 4.312916,-1.33333 2.838018,0.40126 3.226581,1.21949 3.589313,7.55822 0.532157,9.29943 -3.033081,13.73211 -7.473433,9.29176 z m 25.862701,-7.7986 c -5.531549,-4.85677 -6.406195,-9.91065 -1.959429,-11.322 4.171912,-1.32412 14.469161,9.0174 12.342051,12.39511 -2.348887,3.72987 -5.254346,3.42957 -10.382622,-1.07311 z M 117.6,173.06667 c -2.5504,-2.5504 -1.93374,-4.19959 3.58549,-9.58898 9.30212,-9.08328 15.08676,-3.29864 6.00348,6.00348 -5.38939,5.51924 -7.03857,6.1359 -9.58897,3.5855 z M 49.656884,153.12355 c -2.167288,-2.16728 -2.090399,-3.16623 0.438355,-5.69498 2.253342,-2.25334 11.980261,-2.85169 15.021417,-0.92404 0.980828,0.62171 1.580828,2.56252 1.333333,4.31292 -0.403978,2.85714 -1.200817,3.22244 -7.793105,3.57276 -4.56086,0.24238 -7.970897,-0.23756 -9,-1.26666 z m 32.697485,-2.34751 C 78.615948,147.43576 78,146.00573 78,140.66667 c 0,-5.33907 0.615948,-6.7691 4.354369,-10.10938 7.988794,-7.13798 20.116221,-4.01335 22.743741,5.85992 3.79641,14.26551 -11.816439,24.12238 -22.743741,14.35883 z m 13.485663,-7.81047 c 2.744208,-5.1276 -4.058819,-9.52165 -7.786931,-5.02956 -0.883712,1.06482 -1.216746,3.16482 -0.740076,4.66667 1.090119,3.43467 6.754043,3.67571 8.527007,0.36289 z M 59.555556,129.77778 c -2.403712,-2.40371 -0.679721,-6.72272 3.407725,-8.53716 2.67514,-1.18751 4.582688,-3.16523 5.054659,-5.24062 0.887248,-3.90148 5.399216,-5.11214 7.885833,-2.11595 2.318744,2.79392 -0.351384,10.55903 -4.846773,14.0951 -3.314185,2.60694 -9.695245,3.60483 -11.501444,1.79863 z m 83.777774,-15.32536 c -4.86738,-2.67673 -7.27302,-6.9218 -7.30368,-12.88832 -0.0564,-10.969553 10.82592,-16.982359 21.11031,-11.664095 4.24471,2.195022 6.86004,7.136956 6.86004,12.962735 0,5.87022 -7.52379,13.15127 -13.53333,13.09671 -2.45667,-0.0223 -5.66667,-0.70046 -7.13334,-1.50703 z M 154,102 c 0,-3.551479 -0.44648,-4 -3.98173,-4 -2.78107,0 -4.12178,0.727097 -4.44611,2.41122 -0.83288,4.32482 0.85537,6.4598 4.75359,6.01141 C 153.42544,106.06609 154,105.3745 154,102 Z m 30.71752,11 c -4.36808,-3.81917 -6.43324,-10.63405 -4.16324,-13.738449 2.25619,-3.085528 6.94767,-1.427471 8.01708,2.833389 0.48943,1.95006 2.33095,3.90092 4.43875,4.7023 4.57154,1.7381 5.81214,3.75401 4.18328,6.79758 -1.80223,3.36749 -8.29831,3.05777 -12.47587,-0.59482 z M 49.6,111.73333 c -2.550403,-2.5504 -1.933744,-4.19958 3.585495,-9.58897 5.758953,-5.623468 9.879762,-6.003615 10.594013,-0.97731 0.303244,2.13399 -0.955148,4.58562 -3.928223,7.65305 -4.589998,4.73568 -7.579326,5.58519 -10.251285,2.91323 z m 53.33333,0 c -2.5504,-2.5504 -1.93374,-4.19958 3.5855,-9.58897 5.75895,-5.623468 9.87976,-6.003615 10.59401,-0.97731 0.30325,2.13399 -0.95515,4.58562 -3.92822,7.65305 -4.59,4.73568 -7.57933,5.58519 -10.25129,2.91323 z M 74.813428,99.472657 c -4.162148,-2.306901 -6.7074,-7.048929 -6.766181,-12.60599 -0.06435,-6.083466 7.212465,-13.533334 13.218966,-13.533334 13.097612,0 19.871717,15.067194 10.836351,24.102564 -4.360365,4.360363 -11.565435,5.209163 -17.289136,2.03676 z M 86,87.333333 c 0,-3.551478 -0.446473,-4 -3.98174,-4 -2.781056,0 -4.121765,0.727098 -4.446097,2.411218 -0.832886,4.324825 0.855369,6.459801 4.753589,6.01141 C 85.425444,91.399421 86,90.707837 86,87.333333 Z m 34.12617,-5.393342 c -4.55078,-5.183048 -4.87488,-8.096184 -1.16096,-10.434982 1.88401,-1.186436 3.27581,-0.493204 7.71744,3.843935 6.24452,6.097604 6.7063,10.41234 1.18304,11.053748 -2.6005,0.301992 -4.5359,-0.813984 -7.73952,-4.462701 z m 49.46872,0.329866 c -4.67181,-4.820084 -5.53113,-9.497374 -1.99422,-10.854612 2.57949,-0.989842 7.57274,2.303496 11.5313,7.605564 2.17884,2.918312 2.33654,3.876415 0.91914,5.584283 -2.63828,3.178932 -5.79499,2.473929 -10.45622,-2.335235 z M 141.37616,70.051603 c -2.19749,-2.647811 0.50205,-10.815836 4.40949,-13.341867 5.01806,-3.244001 9.62703,-3.773244 12.02003,-1.380245 2.77808,2.778082 0.96499,6.687338 -3.63728,7.842434 -2.01633,0.50607 -3.76168,2.322078 -4.63247,4.820038 -1.53118,4.392366 -5.41101,5.371688 -8.15977,2.05964 z M 102.62385,60.61508 c -2.742906,-3.305003 0.0332,-6.535564 6.05076,-7.041196 8.48537,-0.712996 11.55872,0.620533 11.07613,4.805953 -0.39212,3.40087 -0.8689,3.644 -7.87087,4.013674 -5.61156,0.296265 -7.89891,-0.143222 -9.25602,-1.778431 z m 89.73311,127.02796 c -34.77309,-34.77309 -41.84907,-42.47059 -41.47484,-45.11787 l 0.45121,-3.19184 61.63792,-0.34662 61.63794,-0.34664 0.85973,3.42546 c 1.19444,4.75899 -1.62025,25.30419 -4.95941,36.20019 -6.17891,20.16235 -25.4322,49.7506 -33.08988,50.85216 -2.5782,0.37087 -10.60096,-7.01312 -45.06267,-41.47484 z m 51.41368,22.34657 c 11.40983,-14.60905 19.69913,-35.49122 22.09312,-55.65628 L 266.61565,148 h -5.03634 -5.03635 l -1.53996,10.56571 c -2.46639,16.9218 -9.56915,32.44281 -23.66967,51.72313 -0.98037,1.34051 -0.45092,2.5064 2,4.40417 1.83334,1.41956 3.64124,2.59436 4.01756,2.61067 0.37634,0.0163 3.26522,-3.27501 6.41975,-7.31407 z m -6.3806,-26.65628 c 5.11807,-10.56765 9.21892,-24.5961 9.25692,-31.66666 l 0.0197,-3.66667 -40.33334,0.0569 -40.33333,0.0569 28.66667,27.92472 28.66666,27.92472 4.44535,-4.98164 c 2.44493,-2.73991 6.77004,-9.78166 9.61136,-15.64832 z m -17.15781,11.50508 c -2.43644,-1.54469 -3.5322,-11.16372 -1.66843,-14.6462 0.84151,-1.57238 2.6878,-2.85888 4.10287,-2.85888 1.41506,0 3.26136,1.2865 4.10286,2.85888 2.72883,5.09886 -0.0472,15.76695 -4.10286,15.76695 -0.36667,0 -1.46216,-0.50433 -2.43444,-1.12075 z m -26.08787,-28.0239 c -5.78009,-5.91936 -6.03269,-9.92518 -0.66531,-10.55054 2.57902,-0.30048 4.52198,0.81112 7.65526,4.37974 4.84128,5.5139 5.25038,8.03313 1.62001,9.97605 -3.42056,1.83063 -2.86836,2.07468 -8.60996,-3.80525 z m 22.62955,-2.96836 c -5.01807,-3.94723 -4.30874,-8.65611 1.22609,-8.13938 2.2,0.20539 5.2,0.37344 6.66667,0.37344 1.46666,0 4.46666,-0.16805 6.66666,-0.37344 3.21328,-0.29998 4.07984,0.18635 4.40591,2.47271 0.54516,3.82261 -5.54035,8.48719 -11.07257,8.48719 -2.36888,0 -5.92062,-1.26924 -7.89276,-2.82052 z"
     id="path3735"
     inkscape:connector-curvature="0" />
  <g
     inkscape:groupmode="layer"
     id="layer1"
     inkscape:label="Logo" />
  <g
     inkscape:groupmode="layer"
     id="layer2"
     inkscape:label="Background" />
</svg>
