<?xml version="1.0" encoding="UTF-8" standalone="no"?>
<!-- Created with Inkscape (http://www.inkscape.org/) -->

<svg
   xmlns:dc="http://purl.org/dc/elements/1.1/"
   xmlns:cc="http://creativecommons.org/ns#"
   xmlns:rdf="http://www.w3.org/1999/02/22-rdf-syntax-ns#"
   xmlns:svg="http://www.w3.org/2000/svg"
   xmlns="http://www.w3.org/2000/svg"
   xmlns:sodipodi="http://sodipodi.sourceforge.net/DTD/sodipodi-0.dtd"
   xmlns:inkscape="http://www.inkscape.org/namespaces/inkscape"
   version="1.1"
   id="svg3725"
   width="640"
   height="260"
   viewBox="0 0 640 260"
   sodipodi:docname="instapizza-logo-2.svg"
   inkscape:version="0.92.3 (2405546, 2018-03-11)">
  <metadata
     id="metadata3731">
    <rdf:RDF>
      <cc:Work
         rdf:about="">
        <dc:format>image/svg+xml</dc:format>
        <dc:type
           rdf:resource="http://purl.org/dc/dcmitype/StillImage" />
        <dc:title></dc:title>
      </cc:Work>
    </rdf:RDF>
  </metadata>
  <defs
     id="defs3729" />
  <sodipodi:namedview
     pagecolor="#ffffff"
     bordercolor="#666666"
     borderopacity="1"
     objecttolerance="10"
     gridtolerance="10"
     guidetolerance="10"
     inkscape:pageopacity="0"
     inkscape:pageshadow="2"
     inkscape:window-width="1920"
     inkscape:window-height="1017"
     id="namedview3727"
     showgrid="false"
     inkscape:zoom="1.2836708"
     inkscape:cx="392.7766"
     inkscape:cy="103.15354"
     inkscape:window-x="-8"
     inkscape:window-y="-8"
     inkscape:window-maximized="1"
     inkscape:current-layer="layer1" />
  <g
     inkscape:groupmode="layer"
     id="layer2"
     inkscape:label="Background"
     style="display:inline;opacity:1">
    <path
       style="fill:#0d7914;fill-opacity:1;stroke-width:1.33333337"
       d="M 103.96339,243.81554 C 45.701391,231.31085 5.4882654,174.61806 13.203535,115.86154 18.46056,75.826054 43.725551,41.559685 80.630069,24.412365 122.47528,4.9694005 175.18239,14.083881 208.67231,46.554318 c 20.8883,20.25242 35.29108,51.518234 35.29108,76.610452 v 6.72288 h -57.33333 c -31.53333,0 -57.33333,0.44637 -57.33333,0.99193 0,0.54556 18.1248,19.12405 40.27733,41.28552 l 40.27735,40.29359 -3.27735,3.50629 c -5.51309,5.89824 -24.87693,18.05303 -35.01505,21.97913 -5.27759,2.0438 -14.22032,4.6672 -19.87274,5.82978 -12.54437,2.58008 -35.80121,2.60037 -47.72288,0.0416 z m 56.66667,-11.69008 c 9.47837,-3.11405 25.99847,-11.82759 33.28268,-17.55496 2.57067,-2.02125 2.55412,-2.11879 -0.95519,-5.62809 l -3.57118,-3.57119 -5.99368,4.30433 c -7.83636,5.62766 -20.76691,11.59095 -30.76263,14.1871 -49.17426,12.77177 -100.552769,-15.52154 -116.173716,-63.975 -4.535101,-14.06708 -5.677741,-35.59634 -2.65369,-50 4.340727,-20.675088 19.339957,-44.18632 36.160755,-56.681862 16.8297,-12.502152 32.303291,-17.926455 54.033641,-18.941615 18.76888,-0.876809 32.11846,1.971184 49.00856,10.455452 25.63881,12.878945 46.79372,41.8546 50.39874,69.030645 l 0.90259,6.80404 h 5.31295 5.31296 l -0.93592,-6.24113 C 230.20487,89.025917 214.97766,63.042173 194.29286,46.562081 178.54061,34.011873 161.36507,26.789045 141.40579,24.321482 88.248369,17.749634 39.126381,51.455292 24.475992,104.55431 c -1.756473,6.36618 -2.372896,13.26765 -2.322258,26 0.09685,24.35456 4.948964,40.33866 18.165097,59.84054 10.94064,16.14413 28.188098,30.35686 46.076018,37.96885 15.348041,6.53119 25.095511,8.1766 45.568541,7.69215 15.0902,-0.35707 19.72432,-0.99244 28.66667,-3.93039 z m -12,-16.95313 c 9.38709,-2.51111 19.79792,-6.96416 27.20695,-11.63731 l 7.20694,-4.54568 -30.73245,-30.88419 c -16.90286,-16.98629 -31.39598,-32.19473 -32.20695,-33.79652 -2.22812,-4.40088 -1.80268,-6.88067 1.79824,-10.48159 l 3.27272,-3.27273 h 44.72728 44.72727 l -0.0158,-3 c -0.009,-1.65 -0.8889,-6.3 -1.95601,-10.33333 -5.92247,-22.385118 -23.85851,-44.220552 -44.71136,-54.431843 -14.54919,-7.124495 -24.45323,-9.573757 -38.59693,-9.545 -21.15188,0.04301 -38.297821,5.733272 -54.197841,17.986763 -21.725018,16.742577 -33.788298,41.26328 -33.835638,68.7768 -0.0729,42.38231 29.129728,77.43883 72.071859,86.51916 6.96685,1.47317 27.64167,0.67852 35.24175,-1.35453 z m -38.44444,-8.84024 c -1.87311,-1.87311 -0.92027,-14.75855 1.22287,-16.5372 3.2462,-2.69411 6.47944,0.13146 6.98102,6.10069 0.65731,7.82263 -0.65075,11.3254 -4.2293,11.3254 -1.69714,0 -3.48571,-0.4 -3.97459,-0.88889 z m 20.5912,-0.97179 c -4.16215,-2.30689 -6.7074,-7.04892 -6.76618,-12.60599 -0.0643,-6.08346 7.21247,-13.53333 13.21897,-13.53333 13.09761,0 19.87172,15.0672 10.83634,24.10256 -4.36036,4.36037 -11.56542,5.20917 -17.28913,2.03676 z m 11.18657,-12.13932 c 0,-3.55148 -0.44648,-4 -3.98173,-4 -2.78106,0 -4.12177,0.72709 -4.4461,2.41121 -0.83289,4.32483 0.85537,6.4598 4.75358,6.01142 3.09969,-0.35654 3.67425,-1.04812 3.67425,-4.42263 z m -75.066651,-6.26667 c -1.825438,-1.82544 -2.129638,-12.83333 -0.42879,-15.51665 0.6217,-0.98083 2.56251,-1.58083 4.31291,-1.33333 2.83802,0.40126 3.22658,1.21949 3.58931,7.55822 0.53216,9.29943 -3.03308,13.73211 -7.47343,9.29176 z m 25.8627,-7.7986 c -5.53155,-4.85677 -6.40619,-9.91065 -1.95943,-11.322 4.17192,-1.32412 14.469151,9.0174 12.342041,12.39511 -2.34887,3.72987 -5.254331,3.42957 -10.382611,-1.07311 z m 27.470621,-6.86806 c -2.5504,-2.5504 -1.93374,-4.19959 3.58549,-9.58898 9.30212,-9.08328 15.08676,-3.29864 6.00348,6.00348 -5.38939,5.51924 -7.03857,6.1359 -9.58897,3.5855 z M 52.286961,152.34453 c -2.16729,-2.16728 -2.0904,-3.16623 0.43835,-5.69498 2.25335,-2.25334 11.98026,-2.85169 15.021418,-0.92404 0.98083,0.62171 1.58083,2.56252 1.33333,4.31292 -0.40397,2.85714 -1.20081,3.22244 -7.793098,3.57276 -4.56086,0.24238 -7.9709,-0.23756 -9,-1.26666 z m 32.697478,-2.34751 c -3.73842,-3.34028 -4.35437,-4.77031 -4.35437,-10.10937 0,-5.33907 0.61595,-6.7691 4.35437,-10.10938 7.9888,-7.13798 20.116211,-4.01335 22.743731,5.85992 3.79641,14.26551 -11.816421,24.12238 -22.743731,14.35883 z m 13.48567,-7.81047 c 2.744201,-5.1276 -4.05882,-9.52165 -7.78693,-5.02956 -0.88372,1.06482 -1.21675,3.16482 -0.74008,4.66667 1.09012,3.43467 6.75404,3.67571 8.52701,0.36289 z M 62.185631,128.99876 c -2.40371,-2.40371 -0.67972,-6.72272 3.40773,-8.53716 2.675138,-1.18751 4.582678,-3.16523 5.054648,-5.24062 0.88725,-3.90148 5.39922,-5.11214 7.88584,-2.11595 2.31874,2.79392 -0.35139,10.55903 -4.84678,14.0951 -3.31418,2.60694 -9.695238,3.60483 -11.501438,1.79863 z M 145.96339,113.6734 c -4.86738,-2.67673 -7.27302,-6.9218 -7.30368,-12.88832 -0.0564,-10.969548 10.82592,-16.982354 21.11031,-11.66409 4.24471,2.195022 6.86004,7.136956 6.86004,12.96273 0,5.87022 -7.52379,13.15127 -13.53333,13.09671 -2.45667,-0.0223 -5.66667,-0.70046 -7.13334,-1.50703 z m 10.66667,-12.45242 c 0,-3.551478 -0.44648,-3.999995 -3.98173,-3.999995 -2.78107,0 -4.12178,0.727097 -4.44611,2.411219 -0.83288,4.324816 0.85537,6.459796 4.75359,6.011406 3.09969,-0.35654 3.67425,-1.04813 3.67425,-4.42263 z m 30.71752,11 c -4.36808,-3.81917 -6.43324,-10.63405 -4.16324,-13.738448 2.25619,-3.085524 6.94767,-1.427467 8.01708,2.833388 0.48943,1.95006 2.33095,3.90092 4.43875,4.7023 4.57154,1.7381 5.81214,3.75401 4.18328,6.79758 -1.80223,3.36749 -8.29831,3.05777 -12.47587,-0.59482 z M 52.230071,110.95431 c -2.5504,-2.5504 -1.93374,-4.19958 3.5855,-9.58897 5.75895,-5.623463 9.87976,-6.00361 10.594008,-0.97731 0.30325,2.13399 -0.955148,4.58562 -3.928218,7.65305 -4.59,4.73568 -7.57933,5.58519 -10.25129,2.91323 z m 53.333319,0 c -2.55039,-2.5504 -1.93374,-4.19958 3.5855,-9.58897 5.75895,-5.623463 9.87976,-6.00361 10.59401,-0.97731 0.30325,2.13399 -0.95515,4.58562 -3.92822,7.65305 -4.59,4.73568 -7.57933,5.58519 -10.25129,2.91323 z M 77.443499,98.693642 c -4.16215,-2.306901 -6.7074,-7.048929 -6.76618,-12.60599 -0.0644,-6.083466 7.21247,-13.533334 13.21897,-13.533334 13.09761,0 19.871701,15.067194 10.83635,24.102564 -4.36037,4.360358 -11.56544,5.209158 -17.28914,2.03676 z m 11.18657,-12.139324 c 0,-3.551478 -0.44647,-4 -3.98174,-4 -2.78105,0 -4.12176,0.727098 -4.44609,2.411218 -0.83289,4.324825 0.85537,6.459801 4.75359,6.01141 3.09969,-0.35654 3.67424,-1.048124 3.67424,-4.422628 z m 34.126161,-5.393342 c -4.55078,-5.183048 -4.87488,-8.096184 -1.16096,-10.434982 1.88401,-1.186436 3.27581,-0.493204 7.71744,3.843935 6.24452,6.097604 6.7063,10.41234 1.18304,11.053748 -2.6005,0.301992 -4.5359,-0.813984 -7.73952,-4.462701 z m 49.46872,0.329866 c -4.67181,-4.820084 -5.53113,-9.497374 -1.99422,-10.854612 2.57949,-0.989842 7.57274,2.303496 11.5313,7.605564 2.17884,2.918312 2.33654,3.876415 0.91914,5.584283 -2.63828,3.178932 -5.79499,2.473929 -10.45622,-2.335235 z M 144.00622,69.272588 c -2.19749,-2.647811 0.50205,-10.815836 4.40949,-13.341867 5.01806,-3.244001 9.62703,-3.773244 12.02003,-1.380245 2.77808,2.778082 0.96499,6.687338 -3.63728,7.842434 -2.01633,0.50607 -3.76168,2.322078 -4.63247,4.820038 -1.53118,4.392366 -5.41101,5.371688 -8.15977,2.05964 z m -38.75231,-9.436523 c -2.74289,-3.305003 0.0332,-6.535564 6.05076,-7.041196 8.48537,-0.712996 11.55872,0.620533 11.07613,4.805953 -0.39212,3.40087 -0.8689,3.644 -7.87087,4.013674 -5.61156,0.296265 -7.89891,-0.143222 -9.25602,-1.778431 z m 89.73311,127.027955 c -34.77309,-34.77309 -41.84907,-42.47059 -41.47484,-45.11787 l 0.45121,-3.19184 61.63792,-0.34662 61.63794,-0.34664 0.85973,3.42546 c 1.19444,4.75899 -1.62025,25.30419 -4.95941,36.20019 -6.17891,20.16235 -25.4322,49.7506 -33.08988,50.85216 -2.5782,0.37087 -10.60096,-7.01312 -45.06267,-41.47484 z m 51.41368,22.34657 c 11.40983,-14.60905 19.69913,-35.49122 22.09312,-55.65628 l 0.75189,-6.33333 h -5.03634 -5.03635 l -1.53996,10.56571 c -2.46639,16.9218 -9.56915,32.44281 -23.66967,51.72313 -0.98037,1.34051 -0.45092,2.5064 2,4.40417 1.83334,1.41956 3.64124,2.59436 4.01756,2.61067 0.37634,0.0163 3.26522,-3.27501 6.41975,-7.31407 z m -6.3806,-26.65628 c 5.11807,-10.56765 9.21892,-24.5961 9.25692,-31.66666 l 0.0197,-3.66667 -40.33334,0.0569 -40.33333,0.0569 28.66667,27.92472 28.66666,27.92472 4.44535,-4.98164 c 2.44493,-2.73991 6.77004,-9.78166 9.61136,-15.64832 z m -17.15781,11.50508 c -2.43644,-1.54469 -3.5322,-11.16372 -1.66843,-14.6462 0.84151,-1.57238 2.6878,-2.85888 4.10287,-2.85888 1.41506,0 3.26136,1.2865 4.10286,2.85888 2.72883,5.09886 -0.0472,15.76695 -4.10286,15.76695 -0.36667,0 -1.46216,-0.50433 -2.43444,-1.12075 z m -26.08787,-28.0239 c -5.78009,-5.91936 -6.03269,-9.92518 -0.66531,-10.55054 2.57902,-0.30048 4.52198,0.81112 7.65526,4.37974 4.84128,5.5139 5.25038,8.03313 1.62001,9.97605 -3.42056,1.83063 -2.86836,2.07468 -8.60996,-3.80525 z m 22.62955,-2.96836 c -5.01807,-3.94723 -4.30874,-8.65611 1.22609,-8.13938 2.2,0.20539 5.2,0.37344 6.66667,0.37344 1.46666,0 4.46666,-0.16805 6.66666,-0.37344 3.21328,-0.29998 4.07984,0.18635 4.40591,2.47271 0.54516,3.82261 -5.54035,8.48719 -11.07257,8.48719 -2.36888,0 -5.92062,-1.26924 -7.89276,-2.82052 z"
       id="path3735"
       inkscape:connector-curvature="0" />
  </g>
  <g
     inkscape:groupmode="layer"
     id="layer1"
     inkscape:label="Logo"
     style="display:inline">
    <path
       style="display:inline;fill:#0d7914;fill-opacity:1;stroke-width:1.34697759"
       d="m 559.5339,227.38663 c -6.7015,-2.00958 -11.33909,-8.32519 -11.33909,-15.4419 0,-12.66931 7.3556,-18.42368 26.27527,-20.55543 6.13011,-0.69069 12.21726,-1.26037 13.527,-1.26593 2.82242,-0.012 3.32173,-5.62931 0.68037,-7.65428 -4.628,-3.54801 -15.98893,-2.28707 -15.98893,1.7746 0,1.45935 -2.57517,1.86956 -11.73657,1.86956 h -11.73657 l 0.87464,-4.28509 c 2.19475,-10.7525 14.87777,-16.40279 34.7311,-15.47272 8.4986,0.39813 13.45609,1.37265 18.03734,3.54569 8.97725,4.25823 10.65289,8.42341 10.65289,26.48029 0,14.99014 0.88368,17.73183 5.71521,17.73183 1.99776,0 2.44936,1.11233 2.44936,6.033 0,5.24918 -0.45348,6.20194 -3.49049,7.33333 -7.79026,2.90216 -22.69305,0.15279 -24.52481,-4.5245 -0.62676,-1.60038 -1.97408,-1.32898 -7.59983,1.53094 -7.51912,3.82243 -19.19523,5.09917 -26.52689,2.90061 z m 28.12298,-15.94005 c 1.56439,-1.53285 2.72153,-4.44444 2.72153,-6.84789 v -4.18124 l -6.37522,0.85621 c -8.04783,1.08084 -12.67544,3.99475 -12.67544,7.98144 0,4.2594 0.95034,4.85815 7.71098,4.85815 4.08229,0 6.73401,-0.82051 8.61815,-2.66667 z M 299.17547,188.01317 v -39.43341 l 26.97908,0.43341 c 26.65352,0.42819 27.0456,0.4766 32.49342,4.01211 10.60102,6.87982 14.53849,22.99828 8.56945,35.08012 -5.00679,10.13418 -13.71609,13.98777 -31.64157,14.00041 l -10.54591,0.007 v 12.66667 12.66666 h -12.92723 -12.92724 z m 42.76679,-6.66183 c 1.17609,-1.15237 2.13834,-3.80952 2.13834,-5.90476 0,-5.82412 -3.17234,-8 -11.66367,-8 h -7.38699 v 8 8 h 7.38699 c 4.9011,0 8.10659,-0.70509 9.52533,-2.09524 z m 41.60041,16.09524 v -30 h 11.56648 11.56647 v 30 30 h -11.56647 -11.56648 z m 32.65828,26.6 c 0,-2.11005 4.90453,-10.40557 12.92723,-21.86506 7.10999,-10.15579 12.92724,-18.82579 12.92724,-19.26667 0,-0.44088 -5.51109,-0.8016 -12.24686,-0.8016 h -12.24685 v -7.33333 -7.33334 h 29.25636 29.25638 v 3.05655 c 0,1.68111 -5.81725,11.38995 -12.92724,21.5752 -7.10997,10.18525 -12.92722,19.0098 -12.92722,19.61011 0,0.60032 5.81725,1.09148 12.92722,1.09148 h 12.92724 v 7.33333 7.33333 H 446.1377 416.20095 Z m 65.31654,-0.0708 c 0,-2.17684 4.83563,-10.50304 12.97061,-22.33333 l 12.97059,-18.86253 -12.29021,-0.38338 -12.29022,-0.38336 v -7.2833 -7.2833 h 28.57599 28.57599 v 3.78428 c 0,2.5768 -3.90768,9.38278 -12.24685,21.3302 -6.73578,9.65026 -12.24686,18.14732 -12.24686,18.88239 0,0.79928 5.19602,1.33647 12.92724,1.33647 H 541.391 v 7.33333 7.33333 h -29.93675 -29.93676 z m -97.97482,-71.86253 v -7.33333 h 11.56648 11.56647 v 7.33333 7.33333 h -11.56647 -11.56648 z m 58.98051,-42.05522 c -12.07357,-2.34052 -19.52593,-7.95286 -21.61493,-16.278109 l -0.92006,-3.666668 h 11.39132 c 10.50804,0 11.49547,0.23262 12.73456,2.999998 1.11149,2.482412 2.59488,3.070182 8.59771,3.406772 7.33227,0.41113 11.11582,-1.13172 11.11582,-4.53278 0,-1.81469 -7.25354,-4.16502 -22.0279,-7.13759 -14.88474,-2.994794 -21.60355,-11.148874 -18.90027,-22.937754 2.6429,-11.52563 13.61435,-16.53651 33.99062,-15.52423 17.27019,0.85798 27.34896,6.76258 27.34896,16.02226 v 3.70332 h -10.88609 c -8.65313,0 -10.88608,-0.40061 -10.88608,-1.95309 0,-4.49009 -13.0404,-6.59639 -16.38582,-2.64666 -2.86576,3.38343 0.85747,5.53069 13.6643,7.88044 21.39244,3.92502 28.531,10.14095 26.54549,23.114532 -2.20712,14.421469 -21.01061,21.961119 -43.76763,17.549559 z m 71.78004,-0.35337 c -8.82921,-3.03134 -10.27689,-6.7504 -10.7762,-27.683821 l -0.44305,-18.57425 h -3.97943 c -3.95656,0 -3.97942,-0.046 -3.97942,-8 v -8 h 4.71021 c 5.07777,0 4.63839,0.75321 8.55575,-14.66667 l 1.18554,-4.66667 9.10339,-0.39425 9.10338,-0.394253 v 10.060923 10.06092 h 6.80379 6.80382 v 8 8 h -6.80382 -6.80379 v 14.4 c 0,9.422224 0.56446,14.953082 1.63292,16.000002 0.89809,0.87999 3.95981,1.599992 6.80379,1.599992 h 5.1709 v 7.158877 7.15888 l -5.10286,0.82645 c -7.73724,1.25311 -16.82043,0.887 -21.98492,-0.88613 z m 47.66667,0.48469 c -14.92555,-3.70885 -16.9973,-26.396197 -3.04193,-33.311661 6.57685,-3.2591 17.54871,-5.4311 27.43514,-5.4311 8.91708,0 10.25435,-1.72285 5.97929,-7.70333 -2.9065,-4.06598 -13.36057,-4.26119 -15.88738,-0.29667 -1.4895,2.33696 -3.17334,2.66666 -13.61916,2.66666 -13.57632,0 -14.57356,-1.07187 -8.81017,-9.46949 5.40179,-7.87074 11.50996,-9.86384 30.2293,-9.86384 13.86769,0 17.2889,0.43461 22.69615,2.88315 9.26166,4.19393 10.64251,7.6691 10.64251,26.78397 0,16.301452 0.8116,18.999544 5.7152,18.999544 2.03369,0 2.44937,1.13703 2.44937,6.699667 0,5.96481 -0.38286,6.8423 -3.4905,8 -7.71392,2.87371 -20.59634,0.60587 -24.80481,-4.36667 -1.57623,-1.86241 -2.40388,-1.72773 -7.9087,1.28696 -6.74908,3.6961 -19.47802,5.13714 -27.58431,3.12281 z m 26.94238,-15.356029 c 3.70336,-1.87649 5.49075,-5.289268 5.52985,-10.558508 0.0167,-2.247624 -0.70496,-2.411064 -7.0206,-1.590154 -11.7537,1.527764 -16.46716,5.742634 -12.54999,11.222452 2.43343,3.404182 8.37657,3.796222 14.04074,0.92621 z M 297.81472,68.779919 v -41.33333 h 12.92722 12.92724 v 41.33333 41.333331 h -12.92724 -12.92722 z m 44.90512,10 v -31.33333 h 9.46367 9.46368 l 0.91089,4.75761 0.91088,4.75761 3.57324,-3.27206 c 8.42995,-7.71943 21.90368,-9.97013 31.37547,-5.24109 8.60342,4.29548 10.11384,9.53361 10.7517,37.286714 l 0.56027,24.377877 H 397.31653 384.90344 V 88.986573 c 0,-18.773874 -0.27714,-21.372434 -2.48848,-23.333334 -3.87983,-3.44042 -10.4312,-2.81755 -13.7419,1.30649 -2.56593,3.1963 -2.82028,5.30071 -2.82028,23.333334 v 19.820187 h -11.56646 -11.56648 z"
       id="path4556"
       inkscape:connector-curvature="0" />
  </g>
</svg>
